<svg width="33" height="32" viewBox="0 0 33 32" fill="none" xmlns="http://www.w3.org/2000/svg">
<g clip-path="url(#clip0)">
<path d="M28.5 0H4.5C2.29086 0 0.5 1.79086 0.5 4V28C0.5 30.2091 2.29086 32 4.5 32H28.5C30.7091 32 32.5 30.2091 32.5 28V4C32.5 1.79086 30.7091 0 28.5 0Z" fill="white"/>
<path fill-rule="evenodd" clip-rule="evenodd" d="M16.4999 3.76002C13.5151 3.74964 10.6243 4.80345 8.34632 6.73231C6.06839 8.66117 4.55252 11.3388 4.0708 14.2845C3.58907 17.2303 4.17304 20.2513 5.71787 22.8053C7.26271 25.3593 9.66727 27.2791 12.4999 28.22C13.1299 28.34 13.3599 27.95 13.3599 27.62C13.3599 27.29 13.3599 26.53 13.3599 25.48C9.86994 26.24 9.12994 23.8 9.12994 23.8C8.89323 23.0578 8.40524 22.4213 7.74994 22C6.60994 21.22 7.83994 21.24 7.83994 21.24C8.23713 21.2945 8.61661 21.439 8.94938 21.6626C9.28214 21.8862 9.5594 22.1829 9.75994 22.53C9.92913 22.8401 10.1582 23.1136 10.4338 23.3346C10.7094 23.5555 11.0262 23.7196 11.3657 23.8172C11.7052 23.9149 12.0607 23.9442 12.4116 23.9035C12.7625 23.8628 13.1018 23.7528 13.4099 23.58C13.4674 22.9425 13.7512 22.3465 14.2099 21.9C11.4199 21.54 8.49994 20.46 8.49994 15.65C8.48101 14.4057 8.94313 13.202 9.78994 12.29C9.41394 11.2174 9.4568 10.0424 9.90994 9.00002C9.90994 9.00002 10.9599 8.67002 13.3599 10.29C15.4158 9.73014 17.584 9.73014 19.6399 10.29C22.0399 8.63002 23.0899 9.00002 23.0899 9.00002C23.5568 10.0527 23.6033 11.2441 23.2199 12.33C24.0535 13.2335 24.5113 14.4208 24.4999 15.65C24.4999 20.48 21.5599 21.54 18.7699 21.85C19.0682 22.1542 19.2983 22.5184 19.4449 22.9185C19.5914 23.3185 19.6511 23.7451 19.6199 24.17C19.6199 25.85 19.6199 27.17 19.6199 27.62C19.6199 28.07 19.8499 28.34 20.4899 28.22C23.3218 27.2793 25.7258 25.3604 27.2706 22.8074C28.8155 20.2544 29.4002 17.2346 28.9198 14.2895C28.4394 11.3444 26.9253 8.66688 24.6492 6.73722C22.3731 4.80756 19.4839 3.75204 16.4999 3.76002Z" fill="#232121"/>
</g>
<defs>
<clipPath id="clip0">
<rect width="32" height="32" fill="white" transform="translate(0.5)"/>
</clipPath>
</defs>
</svg>
