<svg width="33" height="32" viewBox="0 0 33 32" fill="none" xmlns="http://www.w3.org/2000/svg">
<g clip-path="url(#clip0)">
<path d="M28.5 0H4.5C2.29086 0 0.5 1.79086 0.5 4V28C0.5 30.2091 2.29086 32 4.5 32H28.5C30.7091 32 32.5 30.2091 32.5 28V4C32.5 1.79086 30.7091 0 28.5 0Z" fill="white"/>
<path d="M28.5 16.28C28.5 15.4456 28.4298 14.6126 28.29 13.79H16.74V18.51H23.35C23.2156 19.2627 22.9302 19.9804 22.5108 20.6198C22.0914 21.2591 21.5469 21.8069 20.91 22.23V25.29H24.85C26.052 24.127 26.9976 22.7256 27.6262 21.1757C28.2547 19.6258 28.5524 17.9617 28.5 16.29V16.28Z" fill="#4285F4"/>
<path d="M16.74 28.24C19.7233 28.3245 22.6267 27.2697 24.8601 25.29L20.91 22.23C19.9611 22.8296 18.8886 23.2063 17.7732 23.332C16.6578 23.4577 15.5284 23.329 14.4698 22.9556C13.4112 22.5822 12.451 21.9738 11.6613 21.1762C10.8716 20.3785 10.2728 19.4122 9.91005 18.35H5.80005V21.5C6.82055 23.5263 8.38375 25.2295 10.3154 26.4195C12.247 27.6096 14.4712 28.2398 16.74 28.24Z" fill="#34A853"/>
<path d="M9.87006 18.35C9.36009 16.8283 9.36009 15.1818 9.87006 13.66V10.51H5.80006C4.94482 12.2173 4.49951 14.1005 4.49951 16.01C4.49951 17.9195 4.94482 19.8027 5.80006 21.51L9.87006 18.35Z" fill="#FBBC04"/>
<path d="M16.74 8.60002C18.4871 8.5751 20.1743 9.23563 21.44 10.44L24.93 6.94002C22.7128 4.86266 19.7782 3.72319 16.74 3.76002C14.4699 3.75997 12.2446 4.39123 10.3126 5.58325C8.38065 6.77527 6.81826 8.48108 5.80005 10.51L9.87005 13.66C10.3438 12.2051 11.2609 10.9348 12.4929 10.0274C13.725 9.11999 15.2101 8.62087 16.74 8.60002Z" fill="#EA4335"/>
</g>
<defs>
<clipPath id="clip0">
<rect width="32" height="32" fill="white" transform="translate(0.5)"/>
</clipPath>
</defs>
</svg>
